<svg id="Layer_2" data-name="Layer 2" xmlns="http://www.w3.org/2000/svg" viewBox="0 0 408.36 408.7"><defs><style>.cls-1{fill:#00d492;}.cls-1,.cls-3{stroke:#44965a;stroke-miterlimit:10;stroke-width:18px;}.cls-2{fill:#44965a;}.cls-3{fill:none;}.cls-4{fill:#b40000;}</style></defs><path class="cls-1" d="M45.24,28.55l213.1,138.89" transform="translate(-17.42 -19.54)"/><circle class="cls-2" cx="27.72" cy="8.93" r="8.93"/><path class="cls-1" d="M27.2,113.24l213.52,61.13" transform="translate(-17.42 -19.54)"/><circle class="cls-2" cx="9.01" cy="93.49" r="9.01"/><path class="cls-1" d="M117.49,419.06l132-178.6" transform="translate(-17.42 -19.54)"/><circle class="cls-2" cx="100.06" cy="399.51" r="8.97"/><path class="cls-1" d="M246.12,419.45l25.45-171.81" transform="translate(-17.42 -19.54)"/><circle class="cls-2" cx="228.73" cy="399.72" r="8.98"/><path class="cls-1" d="M366.69,416.59,294,245.81" transform="translate(-17.42 -19.54)"/><circle class="cls-2" cx="349.25" cy="397.02" r="8.99"/><path class="cls-1" d="M416.87,325.5,318.3,225" transform="translate(-17.42 -19.54)"/><circle class="cls-2" cx="399.38" cy="305.88" r="8.98"/><path class="cls-3" d="M224.36,184.07,75.77,256.2s43.14,29.52,160.72-31.39c0,0-10.54-13.78-12.1-38.12" transform="translate(-17.42 -19.54)"/><path class="cls-3" d="M271.57,160s34.47-12.26,49.79,17.36-3.81,44.54-15.83,56.17-52.52,11.75-64.81-5.1S225.3,197,225.36,183.49Z" transform="translate(-17.42 -19.54)"/><circle class="cls-4" cx="291.69" cy="74.68" r="25.53"/></svg>